<svg width="33" height="33" viewBox="0 0 33 33" fill="none" xmlns="http://www.w3.org/2000/svg">
<g id="bootstrap.svg" clip-path="url(#clip0_411_1207)">
<g id="Group">
<path id="Vector" d="M0.0199966 28.2639C0.0199966 30.5429 1.86731 32.39 4.14609 32.39H27.8939C30.1729 32.39 32.02 30.5427 32.02 28.2639V4.51611C32.02 2.23708 30.1727 0.390015 27.8939 0.390015H4.14609C1.86706 0.390015 0.0199966 2.23733 0.0199966 4.51611V28.2639Z" fill="#563D7C"/>
<path id="Vector_2" d="M13.2897 14.5448V10.0131H17.2787C17.6586 10.0131 18.0249 10.0447 18.3777 10.1081C18.7304 10.1714 19.0425 10.2844 19.3139 10.4473C19.5852 10.6101 19.8023 10.8362 19.9651 11.1257C20.1279 11.4151 20.2093 11.786 20.2093 12.2382C20.2093 13.0523 19.9651 13.6402 19.4767 14.0021C18.9882 14.3639 18.3641 14.5448 17.6043 14.5448H13.2897ZM9.02936 6.70251V26.0775H18.4184C19.2867 26.0775 20.1324 25.969 20.9556 25.7519C21.7787 25.5348 22.5114 25.2001 23.1536 24.7479C23.7958 24.2956 24.3068 23.7122 24.6867 22.9976C25.0667 22.283 25.2566 21.4373 25.2566 20.4604C25.2566 19.2483 24.9626 18.2126 24.3747 17.3533C23.7867 16.494 22.8958 15.8925 21.7018 15.5488C22.5702 15.1327 23.2259 14.5991 23.6692 13.9478C24.1124 13.2965 24.334 12.4825 24.334 11.5056C24.334 10.601 24.1847 9.84123 23.8862 9.22615C23.5877 8.61107 23.1671 8.1181 22.6244 7.74724C22.0817 7.37639 21.4305 7.10955 20.6706 6.94674C19.9108 6.78392 19.0696 6.70251 18.147 6.70251H9.02936ZM13.2897 22.7669V17.4483H17.9299C18.8525 17.4483 19.5943 17.6609 20.1551 18.086C20.7159 18.5111 20.9963 19.2212 20.9963 20.2162C20.9963 20.7227 20.9103 21.1388 20.7385 21.4644C20.5666 21.7901 20.336 22.0478 20.0465 22.2378C19.7571 22.4277 19.4224 22.5634 19.0425 22.6448C18.6626 22.7262 18.2646 22.7669 17.8485 22.7669H13.2897Z" fill="#132347"/>
</g>
</g>
<defs>
<clipPath id="clip0_411_1207">
<rect width="32" height="32" fill="white" transform="translate(0.0199966 0.390015)"/>
</clipPath>
</defs>
</svg>
