<svg width="64" height="64" viewBox="0 0 64 64" fill="none" xmlns="http://www.w3.org/2000/svg">
<g filter="url(#filter0_dd_496_1397)">
<rect x="12" y="2" width="40" height="40" rx="20" fill="#FEFEFE"/>
<g clip-path="url(#clip0_496_1397)">
<path d="M29.4344 26.4187C29.4344 26.4812 29.3625 26.5312 29.2719 26.5312C29.1687 26.5406 29.0969 26.4906 29.0969 26.4187C29.0969 26.3562 29.1688 26.3062 29.2594 26.3062C29.3531 26.2969 29.4344 26.3469 29.4344 26.4187ZM28.4625 26.2781C28.4406 26.3406 28.5031 26.4125 28.5969 26.4312C28.6781 26.4625 28.7719 26.4312 28.7906 26.3687C28.8094 26.3062 28.75 26.2344 28.6562 26.2063C28.575 26.1844 28.4844 26.2156 28.4625 26.2781ZM29.8438 26.225C29.7531 26.2469 29.6906 26.3063 29.7 26.3781C29.7094 26.4406 29.7906 26.4813 29.8844 26.4594C29.975 26.4375 30.0375 26.3781 30.0281 26.3156C30.0187 26.2563 29.9344 26.2156 29.8438 26.225ZM31.9 14.25C27.5656 14.25 24.25 17.5406 24.25 21.875C24.25 25.3406 26.4313 28.3063 29.5469 29.35C29.9469 29.4219 30.0875 29.175 30.0875 28.9719C30.0875 28.7781 30.0781 27.7094 30.0781 27.0531C30.0781 27.0531 27.8906 27.5219 27.4313 26.1219C27.4313 26.1219 27.075 25.2125 26.5625 24.9781C26.5625 24.9781 25.8469 24.4875 26.6125 24.4969C26.6125 24.4969 27.3906 24.5594 27.8187 25.3031C28.5031 26.5094 29.65 26.1625 30.0969 25.9563C30.1688 25.4563 30.3719 25.1094 30.5969 24.9031C28.85 24.7094 27.0875 24.4562 27.0875 21.45C27.0875 20.5906 27.325 20.1594 27.825 19.6094C27.7438 19.4062 27.4781 18.5687 27.9062 17.4875C28.5594 17.2844 30.0625 18.3313 30.0625 18.3313C30.6875 18.1563 31.3594 18.0656 32.025 18.0656C32.6906 18.0656 33.3625 18.1563 33.9875 18.3313C33.9875 18.3313 35.4906 17.2812 36.1438 17.4875C36.5719 18.5719 36.3063 19.4062 36.225 19.6094C36.725 20.1625 37.0312 20.5938 37.0312 21.45C37.0312 24.4656 35.1906 24.7063 33.4438 24.9031C33.7313 25.15 33.975 25.6187 33.975 26.3531C33.975 27.4062 33.9656 28.7094 33.9656 28.9656C33.9656 29.1687 34.1094 29.4156 34.5063 29.3438C37.6313 28.3062 39.75 25.3406 39.75 21.875C39.75 17.5406 36.2344 14.25 31.9 14.25ZM27.2875 25.0281C27.2469 25.0594 27.2563 25.1313 27.3094 25.1906C27.3594 25.2406 27.4312 25.2625 27.4719 25.2219C27.5125 25.1906 27.5031 25.1187 27.45 25.0594C27.4 25.0094 27.3281 24.9875 27.2875 25.0281ZM26.95 24.775C26.9281 24.8156 26.9594 24.8656 27.0219 24.8969C27.0719 24.9281 27.1344 24.9187 27.1562 24.875C27.1781 24.8344 27.1469 24.7844 27.0844 24.7531C27.0219 24.7344 26.9719 24.7437 26.95 24.775ZM27.9625 25.8875C27.9125 25.9281 27.9312 26.0219 28.0031 26.0813C28.075 26.1531 28.1656 26.1625 28.2062 26.1125C28.2469 26.0719 28.2281 25.9781 28.1656 25.9187C28.0969 25.8469 28.0031 25.8375 27.9625 25.8875ZM27.6063 25.4281C27.5563 25.4594 27.5563 25.5406 27.6063 25.6125C27.6562 25.6844 27.7406 25.7156 27.7812 25.6844C27.8312 25.6438 27.8312 25.5625 27.7812 25.4906C27.7375 25.4188 27.6562 25.3875 27.6063 25.4281Z" fill="#0EA5E9"/>
</g>
</g>
<defs>
<filter id="filter0_dd_496_1397" x="0" y="0" width="64" height="64" filterUnits="userSpaceOnUse" color-interpolation-filters="sRGB">
<feFlood flood-opacity="0" result="BackgroundImageFix"/>
<feColorMatrix in="SourceAlpha" type="matrix" values="0 0 0 0 0 0 0 0 0 0 0 0 0 0 0 0 0 0 127 0" result="hardAlpha"/>
<feMorphology radius="2" operator="erode" in="SourceAlpha" result="effect1_dropShadow_496_1397"/>
<feOffset dy="4"/>
<feGaussianBlur stdDeviation="3"/>
<feComposite in2="hardAlpha" operator="out"/>
<feColorMatrix type="matrix" values="0 0 0 0 0 0 0 0 0 0 0 0 0 0 0 0 0 0 0.05 0"/>
<feBlend mode="normal" in2="BackgroundImageFix" result="effect1_dropShadow_496_1397"/>
<feColorMatrix in="SourceAlpha" type="matrix" values="0 0 0 0 0 0 0 0 0 0 0 0 0 0 0 0 0 0 127 0" result="hardAlpha"/>
<feMorphology radius="3" operator="erode" in="SourceAlpha" result="effect2_dropShadow_496_1397"/>
<feOffset dy="10"/>
<feGaussianBlur stdDeviation="7.5"/>
<feComposite in2="hardAlpha" operator="out"/>
<feColorMatrix type="matrix" values="0 0 0 0 0 0 0 0 0 0 0 0 0 0 0 0 0 0 0.1 0"/>
<feBlend mode="normal" in2="effect1_dropShadow_496_1397" result="effect2_dropShadow_496_1397"/>
<feBlend mode="normal" in="SourceGraphic" in2="effect2_dropShadow_496_1397" result="shape"/>
</filter>
<clipPath id="clip0_496_1397">
<rect width="16" height="16" fill="white" transform="translate(24 14)"/>
</clipPath>
</defs>
</svg>
