<svg width="65" height="65" viewBox="0 0 65 65" fill="none" xmlns="http://www.w3.org/2000/svg">
<g filter="url(#filter0_dd_496_1391)">
<rect x="12.0131" y="2.24316" width="40" height="40" rx="20" fill="#FEFEFE"/>
<path d="M32.0162 18.6495C30.0287 18.6495 28.4256 20.2526 28.4256 22.2401C28.4256 24.2276 30.0287 25.8308 32.0162 25.8308C34.0037 25.8308 35.6068 24.2276 35.6068 22.2401C35.6068 20.2526 34.0037 18.6495 32.0162 18.6495ZM32.0162 24.5745C30.7318 24.5745 29.6818 23.5276 29.6818 22.2401C29.6818 20.9526 30.7287 19.9058 32.0162 19.9058C33.3037 19.9058 34.3506 20.9526 34.3506 22.2401C34.3506 23.5276 33.3006 24.5745 32.0162 24.5745ZM36.5912 18.5026C36.5912 18.9683 36.2162 19.3401 35.7537 19.3401C35.2881 19.3401 34.9162 18.9651 34.9162 18.5026C34.9162 18.0401 35.2912 17.6651 35.7537 17.6651C36.2162 17.6651 36.5912 18.0401 36.5912 18.5026ZM38.9693 19.3526C38.9162 18.2308 38.66 17.237 37.8381 16.4183C37.0193 15.5995 36.0256 15.3433 34.9037 15.287C33.7475 15.2214 30.2818 15.2214 29.1256 15.287C28.0068 15.3401 27.0131 15.5964 26.1912 16.4151C25.3693 17.2339 25.1162 18.2276 25.06 19.3495C24.9943 20.5058 24.9943 23.9714 25.06 25.1276C25.1131 26.2495 25.3693 27.2433 26.1912 28.062C27.0131 28.8808 28.0037 29.137 29.1256 29.1933C30.2818 29.2589 33.7475 29.2589 34.9037 29.1933C36.0256 29.1401 37.0193 28.8839 37.8381 28.062C38.6568 27.2433 38.9131 26.2495 38.9693 25.1276C39.035 23.9714 39.035 20.5089 38.9693 19.3526ZM37.4756 26.3683C37.2318 26.9808 36.76 27.4526 36.1443 27.6995C35.2225 28.0651 33.035 27.9808 32.0162 27.9808C30.9975 27.9808 28.8068 28.062 27.8881 27.6995C27.2756 27.4558 26.8037 26.9839 26.5568 26.3683C26.1912 25.4464 26.2756 23.2589 26.2756 22.2401C26.2756 21.2214 26.1943 19.0308 26.5568 18.112C26.8006 17.4995 27.2725 17.0276 27.8881 16.7808C28.81 16.4151 30.9975 16.4995 32.0162 16.4995C33.035 16.4995 35.2256 16.4183 36.1443 16.7808C36.7568 17.0245 37.2287 17.4964 37.4756 18.112C37.8412 19.0339 37.7568 21.2214 37.7568 22.2401C37.7568 23.2589 37.8412 25.4495 37.4756 26.3683Z" fill="#0EA5E9"/>
</g>
<defs>
<filter id="filter0_dd_496_1391" x="0.0130615" y="0.243164" width="64" height="64" filterUnits="userSpaceOnUse" color-interpolation-filters="sRGB">
<feFlood flood-opacity="0" result="BackgroundImageFix"/>
<feColorMatrix in="SourceAlpha" type="matrix" values="0 0 0 0 0 0 0 0 0 0 0 0 0 0 0 0 0 0 127 0" result="hardAlpha"/>
<feMorphology radius="2" operator="erode" in="SourceAlpha" result="effect1_dropShadow_496_1391"/>
<feOffset dy="4"/>
<feGaussianBlur stdDeviation="3"/>
<feComposite in2="hardAlpha" operator="out"/>
<feColorMatrix type="matrix" values="0 0 0 0 0 0 0 0 0 0 0 0 0 0 0 0 0 0 0.05 0"/>
<feBlend mode="normal" in2="BackgroundImageFix" result="effect1_dropShadow_496_1391"/>
<feColorMatrix in="SourceAlpha" type="matrix" values="0 0 0 0 0 0 0 0 0 0 0 0 0 0 0 0 0 0 127 0" result="hardAlpha"/>
<feMorphology radius="3" operator="erode" in="SourceAlpha" result="effect2_dropShadow_496_1391"/>
<feOffset dy="10"/>
<feGaussianBlur stdDeviation="7.5"/>
<feComposite in2="hardAlpha" operator="out"/>
<feColorMatrix type="matrix" values="0 0 0 0 0 0 0 0 0 0 0 0 0 0 0 0 0 0 0.1 0"/>
<feBlend mode="normal" in2="effect1_dropShadow_496_1391" result="effect2_dropShadow_496_1391"/>
<feBlend mode="normal" in="SourceGraphic" in2="effect2_dropShadow_496_1391" result="shape"/>
</filter>
</defs>
</svg>
