<svg width="33" height="33" viewBox="0 0 33 33" fill="none" xmlns="http://www.w3.org/2000/svg">
<g clip-path="url(#clip0_411_1132)">
<path d="M0.779999 0.390015H32.78V32.39H0.779999V0.390015Z" fill="#F7DF1E"/>
<path d="M9.19396 27.1316L11.6428 25.6495C12.1153 26.4872 12.545 27.1959 13.5759 27.1959C14.564 27.1959 15.187 26.8094 15.187 25.3059V15.0811H18.1942V25.3484C18.1942 28.4631 16.3685 29.8808 13.7048 29.8808C11.2992 29.8808 9.90273 28.6348 9.19391 27.1313" fill="black"/>
<path d="M19.8276 26.8093L22.2762 25.3916C22.9207 26.4443 23.7585 27.2175 25.2405 27.2175C26.4866 27.2175 27.2811 26.5945 27.2811 25.7353C27.2811 24.7042 26.4649 24.339 25.0901 23.7378L24.3385 23.4153C22.1689 22.4919 20.7297 21.3319 20.7297 18.8831C20.7297 16.6277 22.4481 14.9092 25.1332 14.9092C27.045 14.9092 28.4197 15.5751 29.4077 17.3151L27.0663 18.8186C26.5508 17.895 25.9924 17.5299 25.1333 17.5299C24.2525 17.5299 23.694 18.0884 23.694 18.8186C23.694 19.7208 24.2525 20.0861 25.5412 20.6446L26.293 20.9668C28.8492 22.0623 30.2884 23.1792 30.2884 25.6923C30.2884 28.399 28.1619 29.881 25.305 29.881C22.5126 29.881 20.7082 28.5493 19.8276 26.8093Z" fill="black"/>
</g>
<defs>
<clipPath id="clip0_411_1132">
<rect width="32" height="32" fill="white" transform="translate(0.779999 0.390015)"/>
</clipPath>
</defs>
</svg>
