<svg width="33" height="33" viewBox="0 0 33 33" fill="none" xmlns="http://www.w3.org/2000/svg">
<g clip-path="url(#clip0_411_1154)">
<path d="M24.579 30.395C24.46 30.458 24.47 30.478 24.584 30.42C24.621 30.405 24.652 30.384 24.679 30.359C24.679 30.338 24.679 30.338 24.579 30.395ZM24.819 30.265C24.762 30.312 24.762 30.312 24.83 30.281C24.866 30.26 24.898 30.24 24.898 30.234C24.898 30.207 24.882 30.213 24.819 30.265ZM24.975 30.171C24.918 30.218 24.918 30.218 24.986 30.187C25.023 30.166 25.054 30.144 25.054 30.139C25.054 30.114 25.038 30.119 24.975 30.171ZM25.133 30.078C25.076 30.125 25.076 30.125 25.142 30.093C25.179 30.073 25.21 30.052 25.21 30.046C25.21 30.021 25.194 30.026 25.133 30.078ZM25.346 29.937C25.237 30.01 25.199 30.057 25.299 30.005C25.366 29.964 25.48 29.874 25.46 29.874C25.417 29.89 25.381 29.917 25.345 29.937H25.346ZM15.783 0.401027C15.71 0.406027 15.491 0.426027 15.299 0.442027C10.751 0.854027 6.496 3.30203 3.799 7.07303C2.308 9.14003 1.34 11.541 0.975002 14.062C0.846002 14.942 0.830002 15.202 0.830002 16.395C0.830002 17.587 0.846002 17.843 0.975002 18.723C1.846 24.734 6.122 29.78 11.918 31.65C12.961 31.983 14.054 32.213 15.299 32.354C15.783 32.406 17.876 32.406 18.36 32.354C20.512 32.114 22.329 31.583 24.127 30.666C24.403 30.526 24.455 30.489 24.418 30.458C23.538 29.297 22.674 28.135 21.809 26.963L19.252 23.51L16.049 18.765C14.981 17.177 13.909 15.593 12.82 14.021C12.809 14.021 12.795 16.13 12.789 18.702C12.778 23.207 12.778 23.39 12.721 23.494C12.664 23.619 12.57 23.723 12.445 23.781C12.346 23.828 12.257 23.838 11.784 23.838H11.243L11.102 23.75C11.014 23.693 10.941 23.614 10.894 23.521L10.826 23.38L10.831 17.109L10.842 10.838L10.941 10.713C11.004 10.636 11.082 10.573 11.17 10.526C11.301 10.463 11.353 10.453 11.894 10.453C12.529 10.453 12.634 10.478 12.801 10.661C14.097 12.593 15.389 14.53 16.66 16.473C18.739 19.625 21.577 23.926 22.972 26.036L25.509 29.875L25.634 29.792C26.853 28.979 27.962 28.011 28.919 26.907C30.935 24.599 32.243 21.76 32.686 18.73C32.815 17.85 32.831 17.589 32.831 16.397C32.831 15.204 32.815 14.949 32.686 14.069C31.815 8.05803 27.539 3.01203 21.743 1.14103C20.659 0.798027 19.544 0.564027 18.415 0.444027C18.112 0.413027 16.044 0.376027 15.784 0.403027L15.783 0.401027ZM22.33 10.078C22.481 10.15 22.595 10.286 22.647 10.442C22.674 10.526 22.679 12.265 22.674 16.182L22.663 21.806L21.674 20.286L20.679 18.765V14.682C20.679 12.035 20.69 10.551 20.704 10.478C20.751 10.311 20.865 10.171 21.017 10.083C21.141 10.02 21.189 10.015 21.684 10.015C22.147 10.015 22.226 10.02 22.33 10.078Z" fill="black"/>
</g>
<defs>
<clipPath id="clip0_411_1154">
<rect width="32" height="32" fill="white" transform="translate(0.830002 0.390015)"/>
</clipPath>
</defs>
</svg>
