<svg width="33" height="33" viewBox="0 0 33 33" fill="none" xmlns="http://www.w3.org/2000/svg">
<path d="M17.4725 2.68874C16.7627 2.28955 15.8373 2.29134 15.1269 2.68874C11.5689 4.65229 8.01081 6.61643 4.45215 8.57908C3.75968 8.94337 3.29263 9.687 3.30008 10.4588V22.3228C3.29508 23.1097 3.78621 23.8605 4.49654 24.2198C5.5187 24.7636 6.51179 25.3626 7.55243 25.8702C8.7545 26.4609 10.2584 26.5915 11.4752 25.9755C12.4629 25.465 12.9016 24.3295 12.9003 23.286C12.9083 19.3706 12.9016 15.4551 12.9034 11.5396C12.9269 11.3656 12.7962 11.1796 12.6064 11.1838C12.1517 11.1766 11.6964 11.1796 11.2417 11.1826C11.0699 11.1664 10.9022 11.3091 10.9152 11.4818C10.9091 15.372 10.9164 19.2634 10.9115 23.1542C10.9214 23.6924 10.5578 24.2096 10.0391 24.3914C8.84119 24.8113 5.42197 22.5912 5.42197 22.5912C5.29649 22.5331 5.21681 22.397 5.22911 22.2618C5.22911 18.3476 5.22972 14.4333 5.22911 10.5197C5.21186 10.3619 5.30911 10.2198 5.45401 10.1554C9.00032 8.20342 12.5448 6.24656 16.0911 4.29338C16.2143 4.21117 16.386 4.21142 16.5089 4.29398C20.0552 6.24656 23.6003 8.20163 27.1472 10.1537C27.2926 10.218 27.3857 10.3625 27.3709 10.5197C27.3703 14.4333 27.3721 18.3476 27.3697 22.2613C27.3802 22.3998 27.3086 22.534 27.1793 22.5948C23.6661 24.5362 20.1129 26.415 16.6315 28.4128C16.4796 28.4999 16.3075 28.5986 16.1373 28.5026C15.2218 27.9962 14.3174 27.4701 13.4049 26.9588C13.3057 26.8969 13.1794 26.8703 13.0759 26.9396C12.6668 27.1552 12.282 27.3298 11.8122 27.5158C11.1524 27.777 11.2578 27.8838 11.8529 28.2305C12.92 28.8344 13.9889 29.4359 15.056 30.0404C15.7585 30.4788 16.7024 30.51 17.4275 30.1049C20.9861 28.1438 24.5436 26.1804 28.1029 24.2193C28.8113 23.858 29.3049 23.1102 29.2999 22.3227V10.4588C29.3068 9.70266 28.8576 8.97229 28.186 8.60261C24.6156 6.62949 21.0435 4.66066 17.4725 2.68874Z" fill="#8CC84B"/>
<path d="M22.8419 11.5962C21.4452 10.849 19.7836 10.8092 18.2315 10.9069C17.1102 11.0177 15.9309 11.3271 15.114 12.1309C14.2761 12.9389 14.0937 14.2437 14.4917 15.2985C14.7769 16.0439 15.4948 16.5286 16.2372 16.785C17.1935 17.1226 18.1979 17.227 19.2026 17.3314C20.119 17.4266 21.0357 17.5219 21.9165 17.7942C22.2763 17.9134 22.6953 18.0958 22.8055 18.4873C22.9073 18.9509 22.7957 19.4898 22.4193 19.8119C21.2237 20.7582 17.8979 20.6132 16.7166 19.8684C16.239 19.5511 16.0332 18.9894 15.9495 18.4541C15.9402 18.2873 15.8059 18.1343 15.6248 18.147C15.1713 18.1416 14.7178 18.1428 14.2643 18.1464C14.1061 18.1331 13.9416 18.2457 13.9329 18.4072C13.8397 20.8589 16.0914 21.9277 18.2039 22.163C19.4108 22.278 20.6442 22.2714 21.8327 22.0124C22.7261 21.809 23.6219 21.4344 24.2369 20.7463C24.9953 19.91 25.1444 18.6649 24.8043 17.6232C24.5443 16.8459 23.8012 16.3473 23.0416 16.0908C22.0086 15.7366 20.7844 15.5462 19.8488 15.4571C18.4889 15.3276 16.8729 15.3805 16.488 14.4869C16.3345 14.019 16.4651 13.438 16.8951 13.1502C18.0328 12.3785 20.3483 12.481 21.5265 13.0575C22.0675 13.3284 22.381 13.8848 22.5104 14.4465C22.5344 14.6115 22.6454 14.7837 22.8364 14.7765C23.2868 14.7855 23.7372 14.7789 24.1875 14.7795C24.3422 14.7903 24.5116 14.703 24.5418 14.5446C24.5227 13.3706 23.9232 12.1688 22.8419 11.5962Z" fill="#8CC84B"/>
</svg>
