<svg width="33" height="33" viewBox="0 0 33 33" fill="none" xmlns="http://www.w3.org/2000/svg">
<path d="M19.1789 16.3659C19.1789 14.9315 17.9796 13.7685 16.5 13.7685C15.0206 13.7685 13.8211 14.9315 13.8211 16.3659C13.8211 17.8005 15.0206 18.9634 16.5 18.9634C17.9796 18.9634 19.1789 17.8005 19.1789 16.3659Z" fill="#53C1DE"/>
<path fill-rule="evenodd" clip-rule="evenodd" d="M25.2004 11.5437C25.7661 9.31479 26.4772 5.18149 23.9704 3.78017C21.4753 2.38496 18.2284 5.05844 16.5139 6.66319C14.8044 5.07443 11.4663 2.41238 8.96161 3.81815C6.46749 5.21804 7.23662 9.28281 7.81488 11.5257C5.48829 12.1664 1.49998 13.5464 1.49998 16.3659C1.49998 19.1774 5.48414 20.6788 7.79696 21.3189C7.21656 23.5742 6.48594 27.5809 8.98325 28.9777C11.4973 30.3832 14.825 27.7845 16.5554 26.1622C18.2809 27.7764 21.4966 30.3921 23.9922 28.9914C26.4956 27.5863 25.8436 23.5084 25.2653 21.2525C27.5073 20.611 31.5 19.1423 31.5 16.3659C31.5 13.5735 27.4903 12.1823 25.2004 11.5437ZM24.9162 20.057C24.5365 18.8916 24.024 17.6523 23.3971 16.3721C23.9955 15.1221 24.4881 13.8988 24.8572 12.7409C26.5359 13.2128 30.2185 14.2913 30.2185 16.3659C30.2185 18.46 26.6846 19.5487 24.9162 20.057ZM23.35 27.916C21.488 28.961 18.7221 26.4596 17.4478 25.2709C18.2932 24.3744 19.138 23.3322 19.9625 22.1749C21.4129 22.0502 22.783 21.8462 24.0256 21.5677C24.4326 23.1634 25.2202 26.8663 23.35 27.916ZM9.6236 27.9011C7.76141 26.86 8.61256 23.2846 9.03955 21.6233C10.2683 21.8869 11.6286 22.0765 13.0824 22.1908C13.9123 23.3232 14.7816 24.3641 15.6576 25.2757C14.5753 26.2908 11.4945 28.947 9.6236 27.9011ZM2.78147 16.3659C2.78147 14.264 6.44205 13.1933 8.15902 12.7226C8.53449 13.9065 9.02693 15.1444 9.62121 16.3962C9.01923 17.6666 8.51975 18.9241 8.14083 20.122C6.50367 19.6676 2.78147 18.4691 2.78147 16.3659ZM9.60368 4.89355C11.4735 3.84417 14.3747 6.39984 15.6159 7.55014C14.7444 8.45755 13.8831 9.49061 13.0603 10.6165C11.6494 10.7433 10.2987 10.9469 9.05707 11.2197C8.59123 9.41072 7.7359 5.9418 9.60368 4.89355ZM20.8793 11.9671C21.8365 12.0842 22.7536 12.24 23.6147 12.4306C23.3562 13.234 23.034 14.0741 22.6545 14.9353C22.1044 13.9233 21.5139 12.9316 20.8793 11.9671ZM16.5143 8.43811C17.1054 9.05898 17.6974 9.75231 18.2798 10.5045C17.0985 10.4503 15.9153 10.4501 14.734 10.5037C15.3169 9.75849 15.914 9.06619 16.5143 8.43811ZM10.3565 14.9344C9.98327 14.0762 9.66397 13.2324 9.4032 12.4175C10.2592 12.2318 11.172 12.08 12.123 11.9648C11.4866 12.9272 10.8971 13.9185 10.3565 14.9344ZM12.1503 20.8557C11.1679 20.7494 10.2412 20.6053 9.38554 20.4247C9.65042 19.5955 9.97676 18.7335 10.3579 17.8568C10.906 18.8833 11.5045 19.8842 12.1503 20.8557ZM16.5498 24.3815C15.9424 23.746 15.3365 23.0431 14.7448 22.2871C15.9328 22.3323 17.1231 22.3324 18.311 22.281C17.7268 23.0508 17.1369 23.7547 16.5498 24.3815ZM22.6667 17.8122C23.0677 18.6984 23.4057 19.5557 23.6742 20.3709C22.8043 20.5634 21.8652 20.7184 20.8757 20.8335C21.515 19.8507 22.1149 18.8436 22.6667 17.8122ZM19.2473 20.9841C17.4301 21.11 15.6016 21.1086 13.7838 20.9944C12.7509 19.5315 11.8314 17.993 11.0377 16.3958C11.8276 14.8019 12.7404 13.2664 13.7684 11.8058C15.5875 11.6725 17.4178 11.6721 19.2369 11.8066C20.2561 13.2671 21.1675 14.7986 21.9757 16.3781C21.1771 17.9712 20.2595 19.5098 19.2473 20.9841ZM23.3303 4.85661C25.2006 5.90255 24.3681 9.61727 23.9595 11.2326C22.7149 10.9541 21.3633 10.7469 19.9483 10.6181C19.1239 9.48005 18.2698 8.44519 17.4124 7.5495C18.6695 6.37442 21.4781 3.8209 23.3303 4.85661Z" fill="#53C1DE"/>
</svg>
