<svg width="29" height="18" viewBox="0 0 29 18" fill="none" xmlns="http://www.w3.org/2000/svg">
<path d="M7.86499 6.09001C8.79832 2.35668 11.1317 0.490013 14.865 0.490013C20.465 0.490013 21.165 4.69001 23.965 5.39001C25.8317 5.85668 27.465 5.15668 28.865 3.29001C27.9317 7.02335 25.5983 8.89001 21.865 8.89001C16.265 8.89001 15.565 4.69001 12.765 3.99001C10.8983 3.52335 9.26499 4.22335 7.86499 6.09001ZM0.86499 14.49C1.79832 10.7567 4.13166 8.89001 7.86499 8.89001C13.465 8.89001 14.165 13.09 16.965 13.79C18.8317 14.2567 20.465 13.5567 21.865 11.69C20.9317 15.4233 18.5983 17.29 14.865 17.29C9.26499 17.29 8.56499 13.09 5.76499 12.39C3.89832 11.9233 2.26499 12.6233 0.86499 14.49Z" fill="#44A8B3"/>
</svg>
