<svg width="33" height="33" viewBox="0 0 33 33" fill="none" xmlns="http://www.w3.org/2000/svg">
<g id="typescript.svg" clip-path="url(#clip0_411_1172)">
<g id="Group">
<path id="Vector" d="M0.280029 16.39V32.39H16.28H32.28V16.39V0.390015H16.28H0.280029V16.39Z" fill="#007ACC"/>
<path id="Vector_2" d="M7.35644 16.4962L7.34628 17.8066H9.42882H11.5114L11.5114 23.7241V29.6416H12.9844H14.4574V23.7241L14.4574 17.8066H16.5399H18.6225V16.5216C18.6225 15.8104 18.6072 15.2162 18.5869 15.2009C18.5717 15.1806 16.0371 15.1704 12.9641 15.1755L7.37167 15.1908L7.35644 16.4962Z" fill="#132347"/>
<path id="Vector_3" d="M26.1009 15.1536C26.9136 15.3567 27.5332 15.7174 28.1021 16.3066C28.3967 16.6215 28.8336 17.1955 28.8691 17.3326C28.8793 17.3732 27.4875 18.3078 26.6443 18.831C26.6139 18.8513 26.492 18.7193 26.3548 18.5161C25.9434 17.9167 25.5116 17.6577 24.8513 17.612C23.8812 17.5459 23.2564 18.0539 23.2615 18.9021C23.2615 19.151 23.297 19.2983 23.3986 19.5015C23.612 19.9434 24.0082 20.2075 25.2526 20.7459C27.5434 21.7313 28.5237 22.3815 29.1332 23.3059C29.8139 24.337 29.9663 25.9828 29.504 27.2069C28.9961 28.5377 27.7364 29.4418 25.9637 29.7415C25.4151 29.838 24.1148 29.8228 23.5256 29.7161C22.2405 29.4875 21.0215 28.8526 20.2697 28.0196C19.9751 27.6945 19.4012 26.8463 19.4367 26.7853C19.452 26.765 19.584 26.6837 19.7313 26.5974C19.8736 26.5161 20.412 26.2063 20.9199 25.9117L21.8393 25.3783L22.0323 25.6628C22.3015 26.0742 22.8907 26.638 23.2463 26.8259C24.2672 27.3643 25.6691 27.2882 26.3599 26.6685C26.6545 26.3993 26.7764 26.1199 26.7764 25.7085C26.7764 25.3377 26.7307 25.1751 26.5377 24.8958C26.2888 24.5402 25.7809 24.2405 24.3383 23.6158C22.6875 22.9047 21.9764 22.4628 21.3263 21.7618C20.9504 21.3555 20.5948 20.7053 20.4475 20.1618C20.3256 19.7097 20.2951 18.577 20.3916 18.1199C20.732 16.525 21.9358 15.4126 23.6729 15.0824C24.2367 14.9758 25.5472 15.0164 26.1009 15.1536Z" fill="#132347"/>
</g>
</g>
<defs>
<clipPath id="clip0_411_1172">
<rect width="32" height="32" fill="white" transform="translate(0.280029 0.390015)"/>
</clipPath>
</defs>
</svg>
