<svg width="33" height="33" viewBox="0 0 33 33" fill="none" xmlns="http://www.w3.org/2000/svg">
<path d="M30.6336 6.53602L17.4918 30.0357C17.2204 30.5208 16.5234 30.5237 16.2479 30.0409L2.84562 6.53822C2.54562 6.01202 2.99542 5.37472 3.59162 5.48122L16.7476 7.83282C16.8315 7.84783 16.9175 7.84769 17.0013 7.83242L29.8821 5.48462C30.4763 5.37632 30.9284 6.00882 30.6336 6.53602Z" fill="url(#paint0_linear_411_1279)"/>
<path d="M23.0144 2.39692L13.2891 4.30252C13.2114 4.31773 13.1409 4.35834 13.0888 4.41797C13.0367 4.4776 13.0059 4.55286 13.0012 4.63192L12.403 14.7357C12.389 14.9737 12.6075 15.1584 12.8397 15.1048L15.5474 14.48C15.8008 14.4215 16.0297 14.6447 15.9776 14.8994L15.1732 18.8387C15.119 19.1037 15.3679 19.3305 15.6268 19.2519L17.2992 18.7437C17.5585 18.665 17.8076 18.8924 17.7528 19.1577L16.4744 25.3454C16.3944 25.7324 16.9092 25.9434 17.1239 25.6116L17.2673 25.39L25.192 9.57482C25.3247 9.31002 25.096 9.00812 24.805 9.06422L22.018 9.60212C21.756 9.65262 21.5332 9.40872 21.6071 9.15242L23.4262 2.84642C23.5002 2.58962 23.2766 2.34552 23.0144 2.39692Z" fill="url(#paint1_linear_411_1279)"/>
<defs>
<linearGradient id="paint0_linear_411_1279" x1="2.51835" y1="4.64128" x2="18.8735" y2="26.8529" gradientUnits="userSpaceOnUse">
<stop stop-color="#41D1FF"/>
<stop offset="1" stop-color="#BD34FE"/>
</linearGradient>
<linearGradient id="paint1_linear_411_1279" x1="15.9918" y1="2.91421" x2="18.9503" y2="23.2097" gradientUnits="userSpaceOnUse">
<stop stop-color="#FFEA83"/>
<stop offset="0.0833" stop-color="#FFDD35"/>
<stop offset="1" stop-color="#FFA800"/>
</linearGradient>
</defs>
</svg>
